<?xml version="1.0" encoding="UTF-8" standalone="no"?>
<!-- Created with Inkscape (http://www.inkscape.org/) -->

<svg
   width="10.58333mm"
   height="7.15729mm"
   viewBox="0 0 10.58333 7.15729"
   version="1.1"
   id="svg5"
   inkscape:version="1.1 (c4e8f9e, 2021-05-24)"
   sodipodi:docname="desenho.svg"
   xmlns:inkscape="http://www.inkscape.org/namespaces/inkscape"
   xmlns:sodipodi="http://sodipodi.sourceforge.net/DTD/sodipodi-0.dtd"
   xmlns="http://www.w3.org/2000/svg"
   xmlns:svg="http://www.w3.org/2000/svg">
  <sodipodi:namedview
     id="namedview7"
     pagecolor="#ffffff"
     bordercolor="#666666"
     borderopacity="1.0"
     inkscape:pageshadow="2"
     inkscape:pageopacity="0.0"
     inkscape:pagecheckerboard="0"
     inkscape:document-units="mm"
     showgrid="false"
     inkscape:zoom="0.43129139"
     inkscape:cx="-41.735125"
     inkscape:cy="76.514395"
     inkscape:window-width="1440"
     inkscape:window-height="751"
     inkscape:window-x="0"
     inkscape:window-y="25"
     inkscape:window-maximized="1"
     inkscape:current-layer="layer1" />
  <defs
     id="defs2">
    <linearGradient
       x1="0"
       y1="0"
       x2="1"
       y2="0"
       gradientUnits="userSpaceOnUse"
       gradientTransform="matrix(-1.46e-5,-334.29596,-334.29596,1.46e-5,144,331.08691)"
       spreadMethod="pad"
       id="linearGradient850">
      <stop
         style="stop-opacity:1;stop-color:#ffffff"
         offset="0"
         id="stop844" />
      <stop
         style="stop-opacity:1;stop-color:#ffffff"
         offset="0.23143138"
         id="stop846" />
      <stop
         style="stop-opacity:1;stop-color:#d7dce0"
         offset="1"
         id="stop848" />
    </linearGradient>
    <clipPath
       clipPathUnits="userSpaceOnUse"
       id="clipPath860">
      <path
         d="M 0,288 H 288 V 0 H 0 Z"
         id="path858" />
    </clipPath>
    <clipPath
       clipPathUnits="userSpaceOnUse"
       id="clipPath876">
      <path
         d="M 68.4937,123.934 H 111.648 V 78.4551 H 68.4937 Z"
         id="path874" />
    </clipPath>
    <clipPath
       clipPathUnits="userSpaceOnUse"
       id="clipPath974">
      <path
         d="M 0,500 H 750.602 V 0 H 0 Z"
         id="path972" />
    </clipPath>
    <clipPath
       clipPathUnits="userSpaceOnUse"
       id="clipPath1028">
      <path
         d="M 0,500 H 750.602 V 0 H 0 Z"
         id="path1026" />
    </clipPath>
    <clipPath
       clipPathUnits="userSpaceOnUse"
       id="clipPath1088">
      <path
         d="M 0,500 H 750.602 V 0 H 0 Z"
         id="path1086" />
    </clipPath>
    <clipPath
       clipPathUnits="userSpaceOnUse"
       id="clipPath1152">
      <path
         d="M 0,500 H 750.602 V 0 H 0 Z"
         id="path1150" />
    </clipPath>
    <clipPath
       clipPathUnits="userSpaceOnUse"
       id="clipPath1388">
      <path
         d="M 0,500 H 750.602 V 0 H 0 Z"
         id="path1386" />
    </clipPath>
  </defs>
  <g
     inkscape:label="Camada 1"
     inkscape:groupmode="layer"
     id="layer1"
     transform="translate(-150.20171,-113.47691)">
    <path
       id="path888"
       style="fill:#a81835;fill-opacity:1;stroke:#a81835;stroke-width:2.2352;stroke-linecap:butt;stroke-linejoin:miter;stroke-miterlimit:10;stroke-dasharray:none;stroke-opacity:1"
       d="m 65.567572,88.378585 c -1.386416,0 -2.51044,1.124024 -2.51044,2.51044 v 27.139425 c 0,1.38642 1.124024,2.51044 2.51044,2.51044 h 10.202995 c 1.386417,0 2.510441,-1.12402 2.510441,-2.51044 V 90.889025 c 0,-1.386416 -1.124024,-2.51044 -2.510441,-2.51044 z m 8.926587,24.555085 c 1.764781,0 3.218926,1.45323 3.218926,3.21841 0,1.76501 -1.45424,3.21893 -3.218926,3.21893 -1.764684,0 -3.220474,-1.45392 -3.220474,-3.21893 0,-1.76517 1.455692,-3.21841 3.220474,-3.21841 z" />
    <path
       d="m 118.91342,95.709474 v -0.734836 c 0,-2.435578 -1.97414,-4.409722 -4.40972,-4.409722 h -10.27854 c 0.2032,-0.811389 0.80787,-2.858558 2.01895,-4.234745 1.54023,-1.75013 3.43006,-6.649861 2.37984,-10.91953 -1.04951,-4.269669 -3.70946,-6.019447 -5.24933,-4.759678 -1.54023,1.260123 -1.47003,7.559675 -4.829883,10.709275 -3.359855,3.149953 -7.069666,9.519708 -8.679391,10.429522 h -7.629525 v 25.19821 h 6.372577 c 0,0 1.539875,1.75013 6.859764,1.75013 0.114653,0 -0.293158,-0.024 16.191088,-0.024 3.96028,0 5.29555,-5.04049 3.07375,-6.54755 2.17523,-1.27812 3.06317,-4.35187 0.93204,-5.93831 3.92607,-2.43276 2.99403,-6.283679 1.13242,-7.224537 1.1363,-0.538339 2.11596,-1.982258 2.11596,-3.294239 z"
       style="fill:#a81835;fill-opacity:1;stroke:#a81835;stroke-width:2.2352;stroke-linecap:butt;stroke-linejoin:miter;stroke-miterlimit:10;stroke-dasharray:none;stroke-opacity:1"
       id="path864" />
    <path
       d="m 29.042194,180.29314 15.546211,-9.27382 3.372908,4.32117 14.752108,-8.99442 v 13.94707 l -9.861903,9.86226 H 38.904449 Z"
       style="fill:#332643;fill-opacity:1;fill-rule:nonzero;stroke:none;stroke-width:0.352778"
       id="path934" />
    <path
       d="m 28.018327,180.90415 16.570325,-9.88483 3.372555,4.32117 14.752461,-8.99442"
       style="fill:none;stroke:#e37253;stroke-width:1.95086;stroke-linecap:butt;stroke-linejoin:miter;stroke-miterlimit:10;stroke-dasharray:none;stroke-opacity:1"
       id="path938" />
    <path
       d="m 66.955468,163.93413 h -5.974644 l 2.987322,5.17419 z"
       style="fill:#e37253;fill-opacity:1;fill-rule:nonzero;stroke:none;stroke-width:0.352778"
       id="path942" />
    <path
       d="m 55.527409,167.54717 v -8.38694 l -2.676172,-2.67617 h -2.987322 v 14.51645 z"
       style="fill:#e37253;fill-opacity:1;fill-rule:nonzero;stroke:none;stroke-width:0.352778"
       id="path946" />
    <path
       d="m 44.588546,167.83895 3.372908,4.32153 0.748242,-0.45614 v -15.22025 h -5.663494 v 12.2749 z"
       style="fill:#e37253;fill-opacity:1;fill-rule:nonzero;stroke:none;stroke-width:0.352778"
       id="path950" />
    <path
       d="m 41.707763,169.55737 v -13.07324 h -2.780242 l -2.883252,2.8515 v 13.60029 z"
       style="fill:#e37253;fill-opacity:1;fill-rule:nonzero;stroke:none;stroke-width:0.352778"
       id="path954" />
    <path
       d="m 34.705935,160.68265 -5.663847,5.66349 v 10.76678 l 5.663847,-3.37855 z"
       style="fill:#e37253;fill-opacity:1;fill-rule:nonzero;stroke:none;stroke-width:0.352778"
       id="path958" />
    <g
       id="g22903"
       transform="translate(48.369909,-89.82983)">
      <path
         id="path978"
         style="fill:#a81835;fill-opacity:1;fill-rule:nonzero;stroke:none;stroke-width:1.33333"
         d="m 417.50586,591.98828 c -3.89734,0 -7.05664,3.15931 -7.05664,7.05664 v 43.94922 c 0,3.89734 3.1593,7.05664 7.05664,7.05664 h 43.94922 c 3.89601,0 7.05469,-3.1593 7.05469,-7.05664 v -43.94922 c 0,-3.89733 -3.15868,-7.05664 -7.05469,-7.05664 z m 18.46289,17.35156 h 7.02344 v 8.16797 h 8.16601 v 7.02344 h -8.16601 v 8.16992 h -7.02344 v -8.16992 h -8.16797 v -7.02344 h 8.16797 z"
         transform="scale(0.26458333)" />
      <path
         id="path986"
         style="fill:#a81835;fill-opacity:1;fill-rule:nonzero;stroke:none;stroke-width:1.33333"
         d="m 417.50586,660.0957 c -3.89734,0 -7.05664,3.15931 -7.05664,7.05664 v 43.94922 c 0,3.89734 3.1593,7.05664 7.05664,7.05664 h 43.94922 c 3.89601,0 7.05469,-3.1593 7.05469,-7.05664 v -43.94922 c 0,-3.89733 -3.15868,-7.05664 -7.05469,-7.05664 z m 21.97461,13.47461 c 1.93466,0 3.50391,1.56792 3.50391,3.50391 0,1.93466 -1.56925,3.50391 -3.50391,3.5039 -1.93599,0 -3.50391,-1.56924 -3.50391,-3.5039 0,-1.93599 1.56792,-3.50391 3.50391,-3.50391 z m -11.67969,12.04492 h 23.35742 v 7.02344 h -23.35742 z m 11.58984,12.06055 c 0.0301,-7.6e-4 0.0596,0 0.0899,0 1.93466,0 3.50391,1.56729 3.50391,3.50195 0,1.93599 -1.56925,3.50391 -3.50391,3.50391 -1.93599,0 -3.50391,-1.56792 -3.50391,-3.50391 0,-1.90443 1.51995,-3.454 3.41406,-3.50195 z"
         transform="scale(0.26458333)" />
      <path
         id="path1000"
         style="fill:#a81835;fill-opacity:1;fill-rule:nonzero;stroke:none;stroke-width:1.33333"
         d="m 485.75586,591.98828 c -3.89734,0 -7.05664,3.15931 -7.05664,7.05664 v 43.94922 c 0,3.89734 3.1593,7.05664 7.05664,7.05664 h 43.94922 c 3.89601,0 7.05469,-3.1593 7.05469,-7.05664 v -43.94922 c 0,-3.89733 -3.15868,-7.05664 -7.05469,-7.05664 z m 16.19922,18.28906 5.77539,5.77735 5.77344,-5.77735 4.96679,4.9668 -5.77343,5.77539 5.77343,5.77539 -4.96679,4.9668 -5.77344,-5.77344 -5.77539,5.77344 -4.9668,-4.9668 5.77539,-5.77539 -5.77539,-5.77539 z"
         transform="scale(0.26458333)" />
      <g
         id="g1006"
         transform="matrix(0.35277777,0,0,-0.35277777,140.15135,190.01245)"
         style="fill:#000000;fill-opacity:0;stroke:#a81835;stroke-width:3.83528;stroke-miterlimit:4;stroke-dasharray:none;stroke-opacity:1">
        <path
           d="m 0,0 h -32.963 c -2.923,0 -5.292,2.369 -5.292,5.292 v 32.962 c 0,2.923 2.369,5.292 5.292,5.292 H 0 c 2.922,0 5.291,-2.369 5.291,-5.292 V 5.292 C 5.291,2.369 2.922,0 0,0"
           style="fill:#000000;fill-opacity:0;fill-rule:nonzero;stroke:#a81835;stroke-width:3.83528;stroke-miterlimit:4;stroke-dasharray:none;stroke-opacity:1"
           id="path1008" />
      </g>
      <g
         id="g1010"
         transform="matrix(0.35277777,0,0,-0.35277777,128.5021,178.58026)"
         style="fill:#a81835;fill-opacity:1">
        <path
           d="m 0,0 c 2.013,-0.718 3.994,-1.561 5.959,-2.478 1.962,-0.924 3.908,-1.929 5.818,-3.066 3.801,-2.31 7.576,-4.969 10.792,-9.198 l 0.002,-0.003 -8.969,0.048 c 0.239,0.394 0.436,0.677 0.64,0.983 0.205,0.31 0.41,0.599 0.615,0.885 0.41,0.579 0.821,1.152 1.245,1.701 0.829,1.122 1.707,2.185 2.571,3.256 0.888,1.05 1.779,2.09 2.689,3.109 0.938,0.996 1.841,2.016 2.8,2.982 3.79,3.906 7.872,7.485 12.196,10.694 l 1.61,1.212 c 0.542,0.397 1.111,0.759 1.665,1.139 1.118,0.745 2.215,1.511 3.343,2.229 2.321,1.35 4.559,2.791 6.971,3.941 4.685,2.525 9.682,4.362 14.645,6.024 C 59.938,21.013 55.396,18.452 51.278,15.288 49.151,13.82 47.223,12.079 45.238,10.455 44.277,9.599 43.354,8.7 42.414,7.83 41.95,7.387 41.472,6.964 41.022,6.508 l -1.33,-1.389 c -3.566,-3.663 -6.815,-7.604 -9.711,-11.751 -0.736,-1.027 -1.41,-2.097 -2.115,-3.138 -0.677,-1.06 -1.331,-2.132 -1.975,-3.203 -0.617,-1.085 -1.248,-2.161 -1.81,-3.256 -0.297,-0.544 -0.565,-1.088 -0.83,-1.631 -0.136,-0.272 -0.269,-0.542 -0.384,-0.804 -0.12,-0.261 -0.253,-0.544 -0.32,-0.727 l -8.97,0.048 -0.002,0.001 c -0.362,1.578 -1.053,3.29 -1.937,4.992 -0.907,1.7 -2.015,3.38 -3.218,5.032 C 7.205,-7.672 5.869,-6.073 4.464,-4.513 3.053,-2.958 1.575,-1.437 0,0"
           style="fill:#a81835;fill-opacity:1;fill-rule:nonzero;stroke:none"
           id="path1012" />
      </g>
    </g>
    <path
       id="path1032"
       style="fill:#a81835;fill-opacity:1;fill-rule:nonzero;stroke:none;stroke-width:0.0789828"
       d="m 151.54138,113.47691 c -0.0712,0 -0.12901,0.0579 -0.12901,0.12912 v 4.9455 l -1.21066,1.71232 v 0.25303 c 0,0.0647 0.0524,0.11732 0.1172,0.11732 h 10.34893 c 0.0648,0 0.1172,-0.0526 0.1172,-0.11732 v -0.25303 l -1.21066,-1.71232 v -4.9455 c 0,-0.0712 -0.0577,-0.12912 -0.129,-0.12912 z m 0.4069,0.38284 h 7.09019 c 0.0713,0 0.12912,0.0578 0.12912,0.12901 v 4.17992 h -7.34831 v -0.15688 c 0.001,9e-5 3.77489,0.28684 6.40017,-2.03084 l 0.023,0.77274 0.73595,-1.59327 -1.59998,0.34871 0.5948,0.25766 c -0.47304,0.3918 -0.99387,0.70252 -1.52617,0.94953 v -2.45626 h -1.13233 v 2.88978 c -0.11569,0.0359 -0.23069,0.0693 -0.34466,0.10043 v -2.48334 h -1.13234 v 2.73035 c -0.10958,0.0183 -0.21632,0.0345 -0.32002,0.0491 v -2.35711 h -1.13233 v 2.46343 c -0.35358,0.0164 -0.56581,0.009 -0.56611,0.009 v -3.6734 c 0,-0.0712 0.0577,-0.129 0.129,-0.129 z m -0.10412,4.9064 h 7.29855 c 0.0246,0 0.0476,0.0124 0.061,0.0331 l 0.42368,0.64964 c 0.0317,0.0485 -0.003,0.11257 -0.061,0.11257 h -8.14605 c -0.0578,0 -0.0926,-0.0641 -0.061,-0.11257 l 0.42369,-0.64964 c 0.0134,-0.0207 0.0364,-0.0331 0.0611,-0.0331 z m 2.32922,0.92049 h 2.63988 c 0.0277,0 0.0523,0.0183 0.0602,0.0449 l 0.0885,0.29965 c 0.0118,0.0401 -0.0183,0.0804 -0.0602,0.0804 h -2.81677 c -0.0419,0 -0.072,-0.0403 -0.0602,-0.0804 l 0.0885,-0.29965 c 0.008,-0.0266 0.0322,-0.0449 0.06,-0.0449 z" />
    <g
       id="g1090"
       transform="matrix(0.35277777,0,0,-0.35277777,61.144971,270.09558)">
      <path
         d="m 0,0 h -83.612 l 14.792,16.565 h 54.028 z"
         style="fill:#332643;fill-opacity:1;fill-rule:nonzero;stroke:none"
         id="path1092" />
    </g>
    <g
       id="g1094"
       transform="matrix(0.35277777,0,0,-0.35277777,58.368257,268.88015)">
      <path
         d="m 0,0 h -67.87 l 8.368,9.675 h 51.134 z"
         style="fill:#e37253;fill-opacity:1;fill-rule:nonzero;stroke:none"
         id="path1096" />
    </g>
    <g
       id="g1098"
       transform="matrix(0.35277777,0,0,-0.35277777,52.373434,234.35859)">
      <path
         d="m 0,0 h -34.942 c -1.126,0 -2.039,-0.913 -2.039,-2.039 v -53.813 -0.51 -10.518 h 4.937 v 8.478 h 3.583 v -23.446 h 4.938 v 23.446 h 3.583 v -13.31 h 4.938 v 13.31 h 3.582 v -5.38 h 4.939 v 5.38 h 3.583 v -8.478 h 4.937 v 10.518 0.51 53.813 C 2.039,-0.913 1.126,0 0,0"
         style="fill:#e37253;fill-opacity:1;fill-rule:nonzero;stroke:none"
         id="path1100" />
    </g>
    <path
       d="m 42.739003,243.16484 h -1.741664 v -2.07222 h 1.741664 z"
       style="fill:#ffffff;fill-opacity:1;fill-rule:nonzero;stroke:none;stroke-width:0.352778"
       id="path1102" />
    <path
       d="m 45.557697,243.16484 h -1.741664 v -2.07222 h 1.741664 z"
       style="fill:#ffffff;fill-opacity:1;fill-rule:nonzero;stroke:none;stroke-width:0.352778"
       id="path1104" />
    <path
       d="m 48.376744,243.16484 h -1.742016 v -2.07222 h 1.742016 z"
       style="fill:#ffffff;fill-opacity:1;fill-rule:nonzero;stroke:none;stroke-width:0.352778"
       id="path1106" />
    <path
       d="m 51.195439,243.16484 h -1.742017 v -2.07222 h 1.742017 z"
       style="fill:#ffffff;fill-opacity:1;fill-rule:nonzero;stroke:none;stroke-width:0.352778"
       id="path1108" />
    <path
       d="m 42.739003,246.22907 h -1.741664 v -2.07222 h 1.741664 z"
       style="fill:#ffffff;fill-opacity:1;fill-rule:nonzero;stroke:none;stroke-width:0.352778"
       id="path1110" />
    <path
       d="m 45.557697,246.22907 h -1.741664 v -2.07222 h 1.741664 z"
       style="fill:#ffffff;fill-opacity:1;fill-rule:nonzero;stroke:none;stroke-width:0.352778"
       id="path1112" />
    <path
       d="m 48.376744,246.22907 h -1.742016 v -2.07222 h 1.742016 z"
       style="fill:#ffffff;fill-opacity:1;fill-rule:nonzero;stroke:none;stroke-width:0.352778"
       id="path1114" />
    <path
       d="m 51.195439,249.26613 h -1.742017 v -5.08247 h 1.742017 z"
       style="fill:#ffffff;fill-opacity:1;fill-rule:nonzero;stroke:none;stroke-width:0.352778"
       id="path1116" />
    <path
       d="m 42.739003,249.29294 h -1.741664 v -2.07221 h 1.741664 z"
       style="fill:#ffffff;fill-opacity:1;fill-rule:nonzero;stroke:none;stroke-width:0.352778"
       id="path1118" />
    <path
       d="m 45.557697,249.29294 h -1.741664 v -2.07221 h 1.741664 z"
       style="fill:#ffffff;fill-opacity:1;fill-rule:nonzero;stroke:none;stroke-width:0.352778"
       id="path1120" />
    <path
       d="m 48.376744,249.29294 h -1.742016 v -2.07221 h 1.742016 z"
       style="fill:#ffffff;fill-opacity:1;fill-rule:nonzero;stroke:none;stroke-width:0.352778"
       id="path1122" />
    <path
       d="m 42.739003,252.35717 h -1.741664 v -2.07222 h 1.741664 z"
       style="fill:#ffffff;fill-opacity:1;fill-rule:nonzero;stroke:none;stroke-width:0.352778"
       id="path1124" />
    <path
       d="m 45.557697,252.35717 h -1.741664 v -2.07222 h 1.741664 z"
       style="fill:#ffffff;fill-opacity:1;fill-rule:nonzero;stroke:none;stroke-width:0.352778"
       id="path1126" />
    <path
       d="m 51.195439,252.35717 h -4.561064 v -2.07222 h 4.561064 z"
       style="fill:#ffffff;fill-opacity:1;fill-rule:nonzero;stroke:none;stroke-width:0.352778"
       id="path1128" />
    <path
       d="M 51.195439,239.52382 H 40.996986 v -3.10374 h 10.198453 z"
       style="fill:#332643;fill-opacity:1;fill-rule:nonzero;stroke:none;stroke-width:0.352778"
       id="path1130" />
    <path
       d="m 53.092677,266.16948 h -1.741663 v -6.82731 h 1.741663 z"
       style="fill:#e37253;fill-opacity:1;fill-rule:nonzero;stroke:none;stroke-width:0.352778"
       id="path1132" />
    <path
       d="M 46.967044,267.58447 H 45.22538 v -6.22265 h 1.741664 z"
       style="fill:#e37253;fill-opacity:1;fill-rule:nonzero;stroke:none;stroke-width:0.352778"
       id="path1134" />
    <path
       d="m 50.089833,258.80877 h -1.712736 v -0.81844 h 1.712736 z"
       style="fill:#e37253;fill-opacity:1;fill-rule:nonzero;stroke:none;stroke-width:0.352778"
       id="path1136" />
    <text
       style="font-variant:normal;font-weight:normal;font-stretch:normal;font-size:9.6115px;font-family:Bebas;-inkscape-font-specification:Bebas-Regular;writing-mode:lr-tb;fill:#332643;fill-opacity:1;fill-rule:nonzero;stroke:none;stroke-width:0.352778"
       id="text1140"
       x="26.554441"
       y="279.25012"><tspan
         x="26.554441 30.600883 34.676159 38.751434 42.961273 47.151886 51.688519 55.398556 57.532307 62.068935"
         y="279.25012"
         sodipodi:role="line"
         id="tspan1138"
         style="stroke-width:0.352778">ACCOUNTING</tspan></text>
    <text
       style="font-variant:normal;font-weight:normal;font-stretch:normal;font-size:5.11715px;font-family:Quicksand;-inkscape-font-specification:Quicksand-Regular;writing-mode:lr-tb;fill:#332643;fill-opacity:1;fill-rule:nonzero;stroke:none;stroke-width:0.352778"
       id="text1144"
       x="38.626427"
       y="285.37448"><tspan
         x="38.626427 41.302692 45.652267 49.817627"
         y="285.37448"
         sodipodi:role="line"
         id="tspan1142"
         style="stroke-width:0.352778">LOGO</tspan></text>
    <g
       id="g1154"
       transform="matrix(0.35277777,0,0,-0.35277777,147.97448,253.02103)">
      <path
         d="M 0,0 -42.219,-12.167 -65.355,1.827 -23.138,13.994 Z"
         style="fill:#ffffff;fill-opacity:1;fill-rule:nonzero;stroke:none"
         id="path1156" />
    </g>
    <g
       id="g1158"
       transform="matrix(0.35277777,0,0,-0.35277777,132.9749,260.0466)">
      <path
         d="m 0,0 -22.837,13.786 v 5.15 L 0,5.149 Z"
         style="fill:#332643;fill-opacity:1;fill-rule:nonzero;stroke:none"
         id="path1160" />
    </g>
    <g
       id="g1162"
       transform="matrix(0.35277777,0,0,-0.35277777,132.9749,263.38663)">
      <path
         d="m 0,0 -22.837,13.786 v 5.15 L 0,5.148 Z"
         style="fill:#332643;fill-opacity:1;fill-rule:nonzero;stroke:none"
         id="path1164" />
    </g>
    <g
       id="g1166"
       transform="matrix(0.35277777,0,0,-0.35277777,132.9749,266.72697)">
      <path
         d="m 0,0 -22.837,13.787 v 5.15 L 0,5.149 Z"
         style="fill:#332643;fill-opacity:1;fill-rule:nonzero;stroke:none"
         id="path1168" />
    </g>
    <g
       id="g1170"
       transform="matrix(0.35277777,0,0,-0.35277777,132.9749,270.067)">
      <path
         d="m 0,0 -22.837,13.787 v 5.15 L 0,5.149 Z"
         style="fill:#332643;fill-opacity:1;fill-rule:nonzero;stroke:none"
         id="path1172" />
    </g>
    <g
       id="g1174"
       transform="matrix(0.35277777,0,0,-0.35277777,133.76967,260.0466)">
      <path
         d="m 0,0 40.266,11.627 v 5.149 L 0,5.149 Z"
         style="fill:#332643;fill-opacity:1;fill-rule:nonzero;stroke:none"
         id="path1176" />
    </g>
    <g
       id="g1178"
       transform="matrix(0.35277777,0,0,-0.35277777,133.76967,263.38663)">
      <path
         d="m 0,0 40.266,11.627 v 5.149 L 0,5.148 Z"
         style="fill:#332643;fill-opacity:1;fill-rule:nonzero;stroke:none"
         id="path1180" />
    </g>
    <g
       id="g1182"
       transform="matrix(0.35277777,0,0,-0.35277777,133.76967,266.72697)">
      <path
         d="m 0,0 40.266,11.628 v 5.149 L 0,5.149 Z"
         style="fill:#332643;fill-opacity:1;fill-rule:nonzero;stroke:none"
         id="path1184" />
    </g>
    <g
       id="g1186"
       transform="matrix(0.35277777,0,0,-0.35277777,133.76967,270.067)">
      <path
         d="m 0,0 40.266,11.627 v 5.149 L 0,5.149 Z"
         style="fill:#332643;fill-opacity:1;fill-rule:nonzero;stroke:none"
         id="path1188" />
    </g>
    <g
       id="g1190"
       transform="matrix(0.35277777,0,0,-0.35277777,117.10367,247.94914)">
      <path
         d="m 0,0 v -3.633 c 0,-1.425 4.43,-2.579 9.894,-2.579 5.463,0 9.892,1.154 9.892,2.579 V 0 Z"
         style="fill:#e37253;fill-opacity:1;fill-rule:nonzero;stroke:none"
         id="path1192" />
    </g>
    <g
       id="g1194"
       transform="matrix(0.35277777,0,0,-0.35277777,124.08377,247.94914)">
      <path
         d="m 0,0 c 0,-1.425 -4.429,-2.58 -9.893,-2.58 -5.463,0 -9.893,1.155 -9.893,2.58 0,1.425 4.43,2.58 9.893,2.58 C -4.429,2.58 0,1.425 0,0"
         style="fill:#ffffff;fill-opacity:1;fill-rule:nonzero;stroke:none"
         id="path1196" />
    </g>
    <g
       id="g1198"
       transform="matrix(0.35277777,0,0,-0.35277777,117.10367,249.84395)">
      <path
         d="M 0,0 Z"
         style="fill:#e37253;fill-opacity:1;fill-rule:nonzero;stroke:none"
         id="path1200" />
    </g>
    <g
       id="g1202"
       transform="matrix(0.35277777,0,0,-0.35277777,120.59388,250.75415)">
      <path
         d="m 0,0 c -5.464,0 -9.894,1.155 -9.894,2.58 v -3.633 c 0,-1.425 4.43,-2.579 9.894,-2.579 5.464,0 9.893,1.154 9.893,2.579 V 2.58 C 9.893,1.155 5.464,0 0,0"
         style="fill:#e37253;fill-opacity:1;fill-rule:nonzero;stroke:none"
         id="path1204" />
    </g>
    <g
       id="g1206"
       transform="matrix(0.35277777,0,0,-0.35277777,124.08377,249.84395)">
      <path
         d="M 0,0 Z"
         style="fill:#e37253;fill-opacity:1;fill-rule:nonzero;stroke:none"
         id="path1208" />
    </g>
    <g
       id="g1210"
       transform="matrix(0.35277777,0,0,-0.35277777,117.10367,251.89411)">
      <path
         d="M 0,0 Z"
         style="fill:#e37253;fill-opacity:1;fill-rule:nonzero;stroke:none"
         id="path1212" />
    </g>
    <g
       id="g1214"
       transform="matrix(0.35277777,0,0,-0.35277777,120.59388,252.80432)">
      <path
         d="m 0,0 c -5.464,0 -9.894,1.154 -9.894,2.58 v -3.633 c 0,-1.425 4.43,-2.58 9.894,-2.58 5.464,0 9.893,1.155 9.893,2.58 V 2.58 C 9.893,1.154 5.464,0 0,0"
         style="fill:#e37253;fill-opacity:1;fill-rule:nonzero;stroke:none"
         id="path1216" />
    </g>
    <g
       id="g1218"
       transform="matrix(0.35277777,0,0,-0.35277777,124.08377,251.89411)">
      <path
         d="M 0,0 Z"
         style="fill:#e37253;fill-opacity:1;fill-rule:nonzero;stroke:none"
         id="path1220" />
    </g>
    <g
       id="g1222"
       transform="matrix(0.35277777,0,0,-0.35277777,117.10367,253.94463)">
      <path
         d="M 0,0 Z"
         style="fill:#e37253;fill-opacity:1;fill-rule:nonzero;stroke:none"
         id="path1224" />
    </g>
    <g
       id="g1226"
       transform="matrix(0.35277777,0,0,-0.35277777,120.59388,254.85484)">
      <path
         d="m 0,0 c -5.464,0 -9.894,1.155 -9.894,2.58 v -3.632 c 0,-1.425 4.43,-2.58 9.894,-2.58 5.464,0 9.893,1.155 9.893,2.58 V 2.58 C 9.893,1.155 5.464,0 0,0"
         style="fill:#e37253;fill-opacity:1;fill-rule:nonzero;stroke:none"
         id="path1228" />
    </g>
    <g
       id="g1230"
       transform="matrix(0.35277777,0,0,-0.35277777,124.08377,253.94463)">
      <path
         d="M 0,0 Z"
         style="fill:#e37253;fill-opacity:1;fill-rule:nonzero;stroke:none"
         id="path1232" />
    </g>
    <g
       id="g1234"
       transform="matrix(0.35277777,0,0,-0.35277777,117.10367,255.9948)">
      <path
         d="M 0,0 Z"
         style="fill:#e37253;fill-opacity:1;fill-rule:nonzero;stroke:none"
         id="path1236" />
    </g>
    <g
       id="g1238"
       transform="matrix(0.35277777,0,0,-0.35277777,120.59388,256.905)">
      <path
         d="m 0,0 c -5.464,0 -9.894,1.155 -9.894,2.58 v -3.632 c 0,-1.425 4.43,-2.58 9.894,-2.58 5.464,0 9.893,1.155 9.893,2.58 V 2.58 C 9.893,1.155 5.464,0 0,0"
         style="fill:#e37253;fill-opacity:1;fill-rule:nonzero;stroke:none"
         id="path1240" />
    </g>
    <g
       id="g1242"
       transform="matrix(0.35277777,0,0,-0.35277777,124.08377,255.9948)">
      <path
         d="M 0,0 Z"
         style="fill:#e37253;fill-opacity:1;fill-rule:nonzero;stroke:none"
         id="path1244" />
    </g>
    <g
       id="g1246"
       transform="matrix(0.35277777,0,0,-0.35277777,117.10367,258.04501)">
      <path
         d="M 0,0 Z"
         style="fill:#e37253;fill-opacity:1;fill-rule:nonzero;stroke:none"
         id="path1248" />
    </g>
    <g
       id="g1250"
       transform="matrix(0.35277777,0,0,-0.35277777,120.59388,258.95517)">
      <path
         d="m 0,0 c -5.464,0 -9.894,1.155 -9.894,2.58 v -3.632 c 0,-1.425 4.43,-2.58 9.894,-2.58 5.464,0 9.893,1.155 9.893,2.58 V 2.58 C 9.893,1.155 5.464,0 0,0"
         style="fill:#e37253;fill-opacity:1;fill-rule:nonzero;stroke:none"
         id="path1252" />
    </g>
    <g
       id="g1254"
       transform="matrix(0.35277777,0,0,-0.35277777,124.08377,258.04501)">
      <path
         d="M 0,0 Z"
         style="fill:#e37253;fill-opacity:1;fill-rule:nonzero;stroke:none"
         id="path1256" />
    </g>
    <g
       id="g1258"
       transform="matrix(0.35277777,0,0,-0.35277777,117.10367,260.09517)">
      <path
         d="M 0,0 Z"
         style="fill:#e37253;fill-opacity:1;fill-rule:nonzero;stroke:none"
         id="path1260" />
    </g>
    <g
       id="g1262"
       transform="matrix(0.35277777,0,0,-0.35277777,120.59388,261.00538)">
      <path
         d="m 0,0 c -5.464,0 -9.894,1.155 -9.894,2.58 v -3.632 c 0,-1.425 4.43,-2.58 9.894,-2.58 5.464,0 9.893,1.155 9.893,2.58 V 2.58 C 9.893,1.155 5.464,0 0,0"
         style="fill:#e37253;fill-opacity:1;fill-rule:nonzero;stroke:none"
         id="path1264" />
    </g>
    <g
       id="g1266"
       transform="matrix(0.35277777,0,0,-0.35277777,124.08377,260.09517)">
      <path
         d="M 0,0 Z"
         style="fill:#e37253;fill-opacity:1;fill-rule:nonzero;stroke:none"
         id="path1268" />
    </g>
    <g
       id="g1270"
       transform="matrix(0.35277777,0,0,-0.35277777,117.10367,262.14534)">
      <path
         d="M 0,0 Z"
         style="fill:#e37253;fill-opacity:1;fill-rule:nonzero;stroke:none"
         id="path1272" />
    </g>
    <g
       id="g1274"
       transform="matrix(0.35277777,0,0,-0.35277777,120.59388,263.05554)">
      <path
         d="m 0,0 c -5.464,0 -9.894,1.155 -9.894,2.58 v -3.632 c 0,-1.426 4.43,-2.58 9.894,-2.58 5.464,0 9.893,1.154 9.893,2.58 V 2.58 C 9.893,1.155 5.464,0 0,0"
         style="fill:#e37253;fill-opacity:1;fill-rule:nonzero;stroke:none"
         id="path1276" />
    </g>
    <g
       id="g1278"
       transform="matrix(0.35277777,0,0,-0.35277777,124.08377,262.14534)">
      <path
         d="M 0,0 Z"
         style="fill:#e37253;fill-opacity:1;fill-rule:nonzero;stroke:none"
         id="path1280" />
    </g>
    <g
       id="g1282"
       transform="matrix(0.35277777,0,0,-0.35277777,117.10367,264.19551)">
      <path
         d="M 0,0 Z"
         style="fill:#e37253;fill-opacity:1;fill-rule:nonzero;stroke:none"
         id="path1284" />
    </g>
    <g
       id="g1286"
       transform="matrix(0.35277777,0,0,-0.35277777,120.59388,265.10571)">
      <path
         d="m 0,0 c -5.464,0 -9.894,1.155 -9.894,2.58 v -3.633 c 0,-1.425 4.43,-2.579 9.894,-2.579 5.464,0 9.893,1.154 9.893,2.579 V 2.58 C 9.893,1.155 5.464,0 0,0"
         style="fill:#e37253;fill-opacity:1;fill-rule:nonzero;stroke:none"
         id="path1288" />
    </g>
    <g
       id="g1290"
       transform="matrix(0.35277777,0,0,-0.35277777,124.08377,264.19551)">
      <path
         d="M 0,0 Z"
         style="fill:#e37253;fill-opacity:1;fill-rule:nonzero;stroke:none"
         id="path1292" />
    </g>
    <g
       id="g1294"
       transform="matrix(0.35277777,0,0,-0.35277777,108.99875,254.1)">
      <path
         d="m 0,0 v -3.632 c 0,-1.425 4.43,-2.58 9.894,-2.58 5.463,0 9.893,1.155 9.893,2.58 V 0 Z"
         style="fill:#e37253;fill-opacity:1;fill-rule:nonzero;stroke:none"
         id="path1296" />
    </g>
    <g
       id="g1298"
       transform="matrix(0.35277777,0,0,-0.35277777,115.9792,254.1)">
      <path
         d="m 0,0 c 0,-1.425 -4.43,-2.58 -9.894,-2.58 -5.463,0 -9.893,1.155 -9.893,2.58 0,1.425 4.43,2.58 9.893,2.58 C -4.43,2.58 0,1.425 0,0"
         style="fill:#ffffff;fill-opacity:1;fill-rule:nonzero;stroke:none"
         id="path1300" />
    </g>
    <g
       id="g1302"
       transform="matrix(0.35277777,0,0,-0.35277777,108.99875,255.9948)">
      <path
         d="M 0,0 Z"
         style="fill:#e37253;fill-opacity:1;fill-rule:nonzero;stroke:none"
         id="path1304" />
    </g>
    <g
       id="g1306"
       transform="matrix(0.35277777,0,0,-0.35277777,112.48895,256.905)">
      <path
         d="m 0,0 c -5.464,0 -9.894,1.155 -9.894,2.58 v -3.632 c 0,-1.425 4.43,-2.58 9.894,-2.58 5.464,0 9.894,1.155 9.894,2.58 V 2.58 C 9.894,1.155 5.464,0 0,0"
         style="fill:#e37253;fill-opacity:1;fill-rule:nonzero;stroke:none"
         id="path1308" />
    </g>
    <g
       id="g1310"
       transform="matrix(0.35277777,0,0,-0.35277777,115.9792,255.9948)">
      <path
         d="M 0,0 Z"
         style="fill:#e37253;fill-opacity:1;fill-rule:nonzero;stroke:none"
         id="path1312" />
    </g>
    <g
       id="g1314"
       transform="matrix(0.35277777,0,0,-0.35277777,108.99875,258.04501)">
      <path
         d="M 0,0 Z"
         style="fill:#e37253;fill-opacity:1;fill-rule:nonzero;stroke:none"
         id="path1316" />
    </g>
    <g
       id="g1318"
       transform="matrix(0.35277777,0,0,-0.35277777,112.48895,258.95517)">
      <path
         d="m 0,0 c -5.464,0 -9.894,1.155 -9.894,2.58 v -3.632 c 0,-1.425 4.43,-2.58 9.894,-2.58 5.464,0 9.894,1.155 9.894,2.58 V 2.58 C 9.894,1.155 5.464,0 0,0"
         style="fill:#e37253;fill-opacity:1;fill-rule:nonzero;stroke:none"
         id="path1320" />
    </g>
    <g
       id="g1322"
       transform="matrix(0.35277777,0,0,-0.35277777,115.9792,258.04501)">
      <path
         d="M 0,0 Z"
         style="fill:#e37253;fill-opacity:1;fill-rule:nonzero;stroke:none"
         id="path1324" />
    </g>
    <g
       id="g1326"
       transform="matrix(0.35277777,0,0,-0.35277777,108.99875,260.09517)">
      <path
         d="M 0,0 Z"
         style="fill:#e37253;fill-opacity:1;fill-rule:nonzero;stroke:none"
         id="path1328" />
    </g>
    <g
       id="g1330"
       transform="matrix(0.35277777,0,0,-0.35277777,112.48895,261.00538)">
      <path
         d="m 0,0 c -5.464,0 -9.894,1.155 -9.894,2.58 v -3.632 c 0,-1.425 4.43,-2.58 9.894,-2.58 5.464,0 9.894,1.155 9.894,2.58 V 2.58 C 9.894,1.155 5.464,0 0,0"
         style="fill:#e37253;fill-opacity:1;fill-rule:nonzero;stroke:none"
         id="path1332" />
    </g>
    <g
       id="g1334"
       transform="matrix(0.35277777,0,0,-0.35277777,115.9792,260.09517)">
      <path
         d="M 0,0 Z"
         style="fill:#e37253;fill-opacity:1;fill-rule:nonzero;stroke:none"
         id="path1336" />
    </g>
    <g
       id="g1338"
       transform="matrix(0.35277777,0,0,-0.35277777,108.99875,262.14534)">
      <path
         d="M 0,0 Z"
         style="fill:#e37253;fill-opacity:1;fill-rule:nonzero;stroke:none"
         id="path1340" />
    </g>
    <g
       id="g1342"
       transform="matrix(0.35277777,0,0,-0.35277777,112.48895,263.05554)">
      <path
         d="m 0,0 c -5.464,0 -9.894,1.155 -9.894,2.58 v -3.632 c 0,-1.426 4.43,-2.58 9.894,-2.58 5.464,0 9.894,1.154 9.894,2.58 V 2.58 C 9.894,1.155 5.464,0 0,0"
         style="fill:#e37253;fill-opacity:1;fill-rule:nonzero;stroke:none"
         id="path1344" />
    </g>
    <g
       id="g1346"
       transform="matrix(0.35277777,0,0,-0.35277777,115.9792,262.14534)">
      <path
         d="M 0,0 Z"
         style="fill:#e37253;fill-opacity:1;fill-rule:nonzero;stroke:none"
         id="path1348" />
    </g>
    <g
       id="g1350"
       transform="matrix(0.35277777,0,0,-0.35277777,108.99875,264.19551)">
      <path
         d="M 0,0 Z"
         style="fill:#e37253;fill-opacity:1;fill-rule:nonzero;stroke:none"
         id="path1352" />
    </g>
    <g
       id="g1354"
       transform="matrix(0.35277777,0,0,-0.35277777,112.48895,265.10571)">
      <path
         d="m 0,0 c -5.464,0 -9.894,1.155 -9.894,2.58 v -3.633 c 0,-1.425 4.43,-2.579 9.894,-2.579 5.464,0 9.894,1.154 9.894,2.579 V 2.58 C 9.894,1.155 5.464,0 0,0"
         style="fill:#e37253;fill-opacity:1;fill-rule:nonzero;stroke:none"
         id="path1356" />
    </g>
    <g
       id="g1358"
       transform="matrix(0.35277777,0,0,-0.35277777,115.9792,264.19551)">
      <path
         d="M 0,0 Z"
         style="fill:#e37253;fill-opacity:1;fill-rule:nonzero;stroke:none"
         id="path1360" />
    </g>
    <g
       id="g1362"
       transform="matrix(0.35277777,0,0,-0.35277777,112.48895,252.31131)">
      <path
         d="m 0,0 c 0,0 7.286,-0.731 10.947,-2.991 v 15.9 c 0,0 2.134,3.487 6.135,3.987 V 34.022 H 0 Z"
         style="fill:#e37253;fill-opacity:1;fill-rule:nonzero;stroke:none"
         id="path1364" />
    </g>
    <g
       id="g1366"
       transform="matrix(0.35277777,0,0,-0.35277777,119.26098,246.13632)">
      <path
         d="M 0,0 C 0,0 14.905,1.75 17.082,-6.893 V 27.03 H 0 Z"
         style="fill:#e37253;fill-opacity:1;fill-rule:nonzero;stroke:none"
         id="path1368" />
    </g>
    <g
       id="g1370"
       transform="matrix(0.35277777,0,0,-0.35277777,126.27727,250.93981)">
      <path
         d="M 0,0 17.082,4.97 V 51.904 H 0 Z"
         style="fill:#e37253;fill-opacity:1;fill-rule:nonzero;stroke:none"
         id="path1372" />
    </g>
    <text
       style="font-variant:normal;font-weight:normal;font-stretch:normal;font-size:9.6115px;font-family:Bebas;-inkscape-font-specification:Bebas-Regular;writing-mode:lr-tb;fill:#332643;fill-opacity:1;fill-rule:nonzero;stroke:none;stroke-width:0.352778"
       id="text1376"
       x="108.64417"
       y="279.25012"><tspan
         x="108.64417 112.69061 116.76589 120.84116 125.051 129.24162 133.77824 137.48828 139.62204 144.15866"
         y="279.25012"
         sodipodi:role="line"
         id="tspan1374"
         style="stroke-width:0.352778">ACCOUNTING</tspan></text>
    <text
       style="font-variant:normal;font-weight:normal;font-stretch:normal;font-size:5.11715px;font-family:Quicksand;-inkscape-font-specification:Quicksand-Regular;writing-mode:lr-tb;fill:#332643;fill-opacity:1;fill-rule:nonzero;stroke:none;stroke-width:0.352778"
       id="text1380"
       x="120.71615"
       y="285.37448"><tspan
         x="120.71615 123.39242 127.742 131.90735"
         y="285.37448"
         sodipodi:role="line"
         id="tspan1378"
         style="stroke-width:0.352778">LOGO</tspan></text>
    <g
       id="g1390"
       transform="matrix(0.35277777,0,0,-0.35277777,224.06424,267.74396)">
      <path
         d="m 0,0 c 0,0 -2.778,71.494 15.128,93.106 h -39.475 c -2.035,-2.457 -3.802,-5.556 -5.338,-9.124 h 28.627 c 0,0 -17.576,-17.918 -17.576,-83.982"
         style="fill:#e37253;fill-opacity:1;fill-rule:nonzero;stroke:none"
         id="path1392" />
    </g>
    <g
       id="g1394"
       transform="matrix(0.35277777,0,0,-0.35277777,216.38822,267.74396)">
      <path
         d="m 0,0 c 0,0 -2.778,58.837 15.128,80.448 h -39.474 c -3.005,-3.627 -5.427,-9.114 -7.378,-14.384 H 0.083 c 0,0 -19.942,-24.335 -17.745,-66.064 z"
         style="fill:#e37253;fill-opacity:1;fill-rule:nonzero;stroke:none"
         id="path1396" />
    </g>
    <g
       id="g1398"
       transform="matrix(0.35277777,0,0,-0.35277777,209.0533,267.74396)">
      <path
         d="M 0,0 C 0,0 -2.778,41.062 15.128,62.673 H -24.347 C -42.253,41.062 -39.475,0 -39.475,0 Z"
         style="fill:#e37253;fill-opacity:1;fill-rule:nonzero;stroke:none"
         id="path1400" />
    </g>
    <g
       id="g1402"
       transform="matrix(0.35277777,0,0,-0.35277777,191.75166,267.74396)">
      <path
         d="M 0,0 H 101.77"
         style="fill:none;stroke:#332643;stroke-width:2.635;stroke-linecap:butt;stroke-linejoin:miter;stroke-miterlimit:10;stroke-dasharray:none;stroke-opacity:1"
         id="path1404" />
    </g>
    <g
       id="g1406"
       transform="matrix(0.35277777,0,0,-0.35277777,206.64171,257.29535)">
      <path
         d="m 0,0 c 0,-8.575 -5.84,-15.527 -13.043,-15.527 -7.204,0 -13.043,6.952 -13.043,15.527 0,8.575 5.839,15.527 13.043,15.527 C -5.84,15.527 0,8.575 0,0"
         style="fill:#ffffff;fill-opacity:1;fill-rule:nonzero;stroke:none"
         id="path1408" />
    </g>
    <text
       transform="rotate(5.6257118)"
       style="font-variant:normal;font-weight:900;font-stretch:normal;font-size:9.57972px;font-family:'Archivo Black';-inkscape-font-specification:ArchivoBlack-Regular;writing-mode:lr-tb;fill:#e37253;fill-opacity:1;fill-rule:nonzero;stroke:none;stroke-width:0.352778"
       id="text1412"
       x="222.69489"
       y="239.62953"><tspan
         x="222.69489"
         y="239.62953"
         id="tspan1410"
         style="stroke-width:0.352778">$</tspan></text>
    <text
       style="font-variant:normal;font-weight:normal;font-stretch:normal;font-size:9.6115px;font-family:Bebas;-inkscape-font-specification:Bebas-Regular;writing-mode:lr-tb;fill:#332643;fill-opacity:1;fill-rule:nonzero;stroke:none;stroke-width:0.352778"
       id="text1416"
       x="190.73393"
       y="279.25012"><tspan
         x="190.73393 194.78036 198.85565 202.93092 207.14076 211.33138 215.86801 219.57805 221.71179 226.24843"
         y="279.25012"
         sodipodi:role="line"
         id="tspan1414"
         style="stroke-width:0.352778">ACCOUNTING</tspan></text>
    <text
       style="font-variant:normal;font-weight:normal;font-stretch:normal;font-size:5.11715px;font-family:Quicksand;-inkscape-font-specification:Quicksand-Regular;writing-mode:lr-tb;fill:#332643;fill-opacity:1;fill-rule:nonzero;stroke:none;stroke-width:0.352778"
       id="text1420"
       x="202.80588"
       y="285.37448"><tspan
         x="202.80588 205.48215 209.83173 213.99709"
         y="285.37448"
         sodipodi:role="line"
         id="tspan1418"
         style="stroke-width:0.352778">LOGO</tspan></text>
  </g>
</svg>
